<?xml version="1.0" encoding="UTF-8" standalone="no"?>
<!DOCTYPE svg PUBLIC "-//W3C//DTD SVG 1.1//EN"
 "http://www.w3.org/Graphics/SVG/1.1/DTD/svg11.dtd">
<!-- Generated by graphviz version 2.40.1 (20161225.0304)
 -->
<!-- Title: G Pages: 1 -->
<svg width="932pt" height="521pt"
 viewBox="0.00 0.00 932.20 521.27" xmlns="http://www.w3.org/2000/svg" xmlns:xlink="http://www.w3.org/1999/xlink">
<g id="graph0" class="graph" transform="scale(1 1) rotate(0) translate(21.6 499.6683)">
<title>G</title>
<polygon fill="#111111" stroke="transparent" points="-21.6,21.6 -21.6,-499.6683 910.6,-499.6683 910.6,21.6 -21.6,21.6"/>
<!-- parser/ECMAScriptLexer.js -->
<g id="node1" class="node">
<title>parser/ECMAScriptLexer.js</title>
<path fill="none" stroke="#ff6c60" d="M226.8333,-170.0683C226.8333,-170.0683 51.1667,-170.0683 51.1667,-170.0683 47.3333,-170.0683 43.5,-166.2349 43.5,-162.4016 43.5,-162.4016 43.5,-154.7349 43.5,-154.7349 43.5,-150.9016 47.3333,-147.0683 51.1667,-147.0683 51.1667,-147.0683 226.8333,-147.0683 226.8333,-147.0683 230.6667,-147.0683 234.5,-150.9016 234.5,-154.7349 234.5,-154.7349 234.5,-162.4016 234.5,-162.4016 234.5,-166.2349 230.6667,-170.0683 226.8333,-170.0683"/>
<text text-anchor="middle" x="139" y="-154.8683" font-family="Arial" font-size="14.00" fill="#ff6c60">parser/ECMAScriptLexer.js</text>
</g>
<!-- parser/ECMAScriptLexerBase.js -->
<g id="node2" class="node">
<title>parser/ECMAScriptLexerBase.js</title>
<path fill="none" stroke="#ff6c60" d="M534.3333,-170.0683C534.3333,-170.0683 324.6667,-170.0683 324.6667,-170.0683 320.8333,-170.0683 317,-166.2349 317,-162.4016 317,-162.4016 317,-154.7349 317,-154.7349 317,-150.9016 320.8333,-147.0683 324.6667,-147.0683 324.6667,-147.0683 534.3333,-147.0683 534.3333,-147.0683 538.1667,-147.0683 542,-150.9016 542,-154.7349 542,-154.7349 542,-162.4016 542,-162.4016 542,-166.2349 538.1667,-170.0683 534.3333,-170.0683"/>
<text text-anchor="middle" x="429.5" y="-154.8683" font-family="Arial" font-size="14.00" fill="#ff6c60">parser/ECMAScriptLexerBase.js</text>
</g>
<!-- parser/ECMAScriptLexer.js&#45;&gt;parser/ECMAScriptLexerBase.js -->
<g id="edge1" class="edge">
<title>parser/ECMAScriptLexer.js&#45;&gt;parser/ECMAScriptLexerBase.js</title>
<path fill="none" stroke="#757575" d="M234.5229,-152.1829C257.5301,-151.8327 282.4302,-151.7347 306.4958,-151.8891"/>
<polygon fill="#757575" stroke="#757575" points="306.7231,-155.391 316.7506,-151.9708 306.7789,-148.3912 306.7231,-155.391"/>
</g>
<!-- parser/ECMAScriptLexerBase.js&#45;&gt;parser/ECMAScriptLexer.js -->
<g id="edge2" class="edge">
<title>parser/ECMAScriptLexerBase.js&#45;&gt;parser/ECMAScriptLexer.js</title>
<path fill="none" stroke="#757575" d="M316.7506,-165.1658C293.0852,-165.3913 268.2066,-165.3667 244.8058,-165.092"/>
<polygon fill="#757575" stroke="#757575" points="244.5691,-161.5886 234.5229,-164.9536 244.4749,-168.588 244.5691,-161.5886"/>
</g>
<!-- parser/ECMAScriptParser.js -->
<g id="node3" class="node">
<title>parser/ECMAScriptParser.js</title>
<path fill="none" stroke="#ff6c60" d="M229.8333,-211.0683C229.8333,-211.0683 48.1667,-211.0683 48.1667,-211.0683 44.3333,-211.0683 40.5,-207.2349 40.5,-203.4016 40.5,-203.4016 40.5,-195.7349 40.5,-195.7349 40.5,-191.9016 44.3333,-188.0683 48.1667,-188.0683 48.1667,-188.0683 229.8333,-188.0683 229.8333,-188.0683 233.6667,-188.0683 237.5,-191.9016 237.5,-195.7349 237.5,-195.7349 237.5,-203.4016 237.5,-203.4016 237.5,-207.2349 233.6667,-211.0683 229.8333,-211.0683"/>
<text text-anchor="middle" x="139" y="-195.8683" font-family="Arial" font-size="14.00" fill="#ff6c60">parser/ECMAScriptParser.js</text>
</g>
<!-- parser/ECMAScriptParserBase.js -->
<g id="node4" class="node">
<title>parser/ECMAScriptParserBase.js</title>
<path fill="none" stroke="#ff6c60" d="M537.3333,-211.0683C537.3333,-211.0683 321.6667,-211.0683 321.6667,-211.0683 317.8333,-211.0683 314,-207.2349 314,-203.4016 314,-203.4016 314,-195.7349 314,-195.7349 314,-191.9016 317.8333,-188.0683 321.6667,-188.0683 321.6667,-188.0683 537.3333,-188.0683 537.3333,-188.0683 541.1667,-188.0683 545,-191.9016 545,-195.7349 545,-195.7349 545,-203.4016 545,-203.4016 545,-207.2349 541.1667,-211.0683 537.3333,-211.0683"/>
<text text-anchor="middle" x="429.5" y="-195.8683" font-family="Arial" font-size="14.00" fill="#ff6c60">parser/ECMAScriptParserBase.js</text>
</g>
<!-- parser/ECMAScriptParser.js&#45;&gt;parser/ECMAScriptParserBase.js -->
<g id="edge3" class="edge">
<title>parser/ECMAScriptParser.js&#45;&gt;parser/ECMAScriptParserBase.js</title>
<path fill="none" stroke="#757575" d="M237.7554,-193.1355C259.0087,-192.8359 281.7467,-192.7485 303.8664,-192.8733"/>
<polygon fill="#757575" stroke="#757575" points="303.9536,-196.3739 313.9784,-192.9455 304.0037,-189.3741 303.9536,-196.3739"/>
</g>
<!-- parser/ECMAScriptParserBase.js&#45;&gt;parser/ECMAScriptParser.js -->
<g id="edge4" class="edge">
<title>parser/ECMAScriptParserBase.js&#45;&gt;parser/ECMAScriptParser.js</title>
<path fill="none" stroke="#757575" d="M313.9784,-206.191C292.196,-206.3799 269.4816,-206.3585 247.9101,-206.1269"/>
<polygon fill="#757575" stroke="#757575" points="247.7981,-202.6253 237.7554,-206.001 247.7112,-209.6248 247.7981,-202.6253"/>
</g>
<!-- query/enumerable/ConcatEnumerable.ts -->
<g id="node5" class="node">
<title>query/enumerable/ConcatEnumerable.ts</title>
<path fill="none" stroke="#ff6c60" d="M270.3333,-252.0683C270.3333,-252.0683 7.6667,-252.0683 7.6667,-252.0683 3.8333,-252.0683 0,-248.2349 0,-244.4016 0,-244.4016 0,-236.7349 0,-236.7349 0,-232.9016 3.8333,-229.0683 7.6667,-229.0683 7.6667,-229.0683 270.3333,-229.0683 270.3333,-229.0683 274.1667,-229.0683 278,-232.9016 278,-236.7349 278,-236.7349 278,-244.4016 278,-244.4016 278,-248.2349 274.1667,-252.0683 270.3333,-252.0683"/>
<text text-anchor="middle" x="139" y="-236.8683" font-family="Arial" font-size="14.00" fill="#ff6c60">query/enumerable/ConcatEnumerable.ts</text>
</g>
<!-- query/internal.ts -->
<g id="node6" class="node">
<title>query/internal.ts</title>
<path fill="none" stroke="#ff6c60" d="M481.3333,-252.0683C481.3333,-252.0683 377.6667,-252.0683 377.6667,-252.0683 373.8333,-252.0683 370,-248.2349 370,-244.4016 370,-244.4016 370,-236.7349 370,-236.7349 370,-232.9016 373.8333,-229.0683 377.6667,-229.0683 377.6667,-229.0683 481.3333,-229.0683 481.3333,-229.0683 485.1667,-229.0683 489,-232.9016 489,-236.7349 489,-236.7349 489,-244.4016 489,-244.4016 489,-248.2349 485.1667,-252.0683 481.3333,-252.0683"/>
<text text-anchor="middle" x="429.5" y="-236.8683" font-family="Arial" font-size="14.00" fill="#ff6c60">query/internal.ts</text>
</g>
<!-- query/enumerable/ConcatEnumerable.ts&#45;&gt;query/internal.ts -->
<g id="edge5" class="edge">
<title>query/enumerable/ConcatEnumerable.ts&#45;&gt;query/internal.ts</title>
<path fill="none" stroke="#757575" d="M278.294,-233.8233C306.4523,-233.7756 334.9097,-234.0666 359.4235,-234.6963"/>
<polygon fill="#757575" stroke="#757575" points="359.5804,-238.2021 369.6756,-234.987 359.7788,-231.2049 359.5804,-238.2021"/>
</g>
<!-- query/internal.ts&#45;&gt;query/enumerable/ConcatEnumerable.ts -->
<g id="edge16" class="edge">
<title>query/internal.ts&#45;&gt;query/enumerable/ConcatEnumerable.ts</title>
<path fill="none" stroke="#757575" d="M369.6756,-246.1496C345.855,-246.8923 317.2794,-247.2811 288.4818,-247.3157"/>
<polygon fill="#757575" stroke="#757575" points="288.2949,-243.8158 278.294,-247.3132 288.2931,-250.8158 288.2949,-243.8158"/>
</g>
<!-- query/enumerable/Enumerable.ts -->
<g id="node7" class="node">
<title>query/enumerable/Enumerable.ts</title>
<path fill="none" stroke="#ff6c60" d="M843.3333,-478.0683C843.3333,-478.0683 626.6667,-478.0683 626.6667,-478.0683 622.8333,-478.0683 619,-474.2349 619,-470.4016 619,-470.4016 619,-462.7349 619,-462.7349 619,-458.9016 622.8333,-455.0683 626.6667,-455.0683 626.6667,-455.0683 843.3333,-455.0683 843.3333,-455.0683 847.1667,-455.0683 851,-458.9016 851,-462.7349 851,-462.7349 851,-470.4016 851,-470.4016 851,-474.2349 847.1667,-478.0683 843.3333,-478.0683"/>
<text text-anchor="middle" x="735" y="-462.8683" font-family="Arial" font-size="14.00" fill="#ff6c60">query/enumerable/Enumerable.ts</text>
</g>
<!-- query/internal.ts&#45;&gt;query/enumerable/Enumerable.ts -->
<g id="edge17" class="edge">
<title>query/internal.ts&#45;&gt;query/enumerable/Enumerable.ts</title>
<path fill="none" stroke="#757575" d="M435.9329,-252.2124C452.8618,-287.5567 502.8029,-391.4447 581,-437.5683 592.1955,-444.1718 604.6361,-448.9975 617.4556,-452.5408"/>
<polygon fill="#757575" stroke="#757575" points="616.7677,-455.9765 627.3183,-455.0087 618.467,-449.1859 616.7677,-455.9765"/>
</g>
<!-- query/enumerable/IEnumerable.ts -->
<g id="node8" class="node">
<title>query/enumerable/IEnumerable.ts</title>
<path fill="none" stroke="#ff6c60" d="M845.3333,-437.0683C845.3333,-437.0683 624.6667,-437.0683 624.6667,-437.0683 620.8333,-437.0683 617,-433.2349 617,-429.4016 617,-429.4016 617,-421.7349 617,-421.7349 617,-417.9016 620.8333,-414.0683 624.6667,-414.0683 624.6667,-414.0683 845.3333,-414.0683 845.3333,-414.0683 849.1667,-414.0683 853,-417.9016 853,-421.7349 853,-421.7349 853,-429.4016 853,-429.4016 853,-433.2349 849.1667,-437.0683 845.3333,-437.0683"/>
<text text-anchor="middle" x="735" y="-421.8683" font-family="Arial" font-size="14.00" fill="#ff6c60">query/enumerable/IEnumerable.ts</text>
</g>
<!-- query/internal.ts&#45;&gt;query/enumerable/IEnumerable.ts -->
<g id="edge18" class="edge">
<title>query/internal.ts&#45;&gt;query/enumerable/IEnumerable.ts</title>
<path fill="none" stroke="#757575" d="M439.0956,-252.3001C459.9392,-282.5961 512.9956,-361.2865 581,-396.5683 594.5456,-403.596 609.6297,-408.4937 624.9097,-411.9571"/>
<polygon fill="#757575" stroke="#757575" points="624.4637,-415.4388 634.965,-414.0339 625.8796,-408.5835 624.4637,-415.4388"/>
</g>
<!-- query/enumerable/SelectEnumerable.ts -->
<g id="node9" class="node">
<title>query/enumerable/SelectEnumerable.ts</title>
<path fill="none" stroke="#ff6c60" d="M863.3333,-396.0683C863.3333,-396.0683 606.6667,-396.0683 606.6667,-396.0683 602.8333,-396.0683 599,-392.2349 599,-388.4016 599,-388.4016 599,-380.7349 599,-380.7349 599,-376.9016 602.8333,-373.0683 606.6667,-373.0683 606.6667,-373.0683 863.3333,-373.0683 863.3333,-373.0683 867.1667,-373.0683 871,-376.9016 871,-380.7349 871,-380.7349 871,-388.4016 871,-388.4016 871,-392.2349 867.1667,-396.0683 863.3333,-396.0683"/>
<text text-anchor="middle" x="735" y="-380.8683" font-family="Arial" font-size="14.00" fill="#ff6c60">query/enumerable/SelectEnumerable.ts</text>
</g>
<!-- query/internal.ts&#45;&gt;query/enumerable/SelectEnumerable.ts -->
<g id="edge19" class="edge">
<title>query/internal.ts&#45;&gt;query/enumerable/SelectEnumerable.ts</title>
<path fill="none" stroke="#757575" d="M444.2684,-252.1434C469.2825,-276.4068 522.9581,-330.5118 581,-355.5683 598.6005,-363.1663 618.3045,-368.0865 637.5857,-371.4232"/>
<polygon fill="#757575" stroke="#757575" points="637.189,-374.9041 647.6166,-373.0294 638.2959,-367.9922 637.189,-374.9041"/>
</g>
<!-- query/enumerable/SelectManyEnumerable.ts -->
<g id="node10" class="node">
<title>query/enumerable/SelectManyEnumerable.ts</title>
<path fill="none" stroke="#ff6c60" d="M881.3333,-355.0683C881.3333,-355.0683 588.6667,-355.0683 588.6667,-355.0683 584.8333,-355.0683 581,-351.2349 581,-347.4016 581,-347.4016 581,-339.7349 581,-339.7349 581,-335.9016 584.8333,-332.0683 588.6667,-332.0683 588.6667,-332.0683 881.3333,-332.0683 881.3333,-332.0683 885.1667,-332.0683 889,-335.9016 889,-339.7349 889,-339.7349 889,-347.4016 889,-347.4016 889,-351.2349 885.1667,-355.0683 881.3333,-355.0683"/>
<text text-anchor="middle" x="735" y="-339.8683" font-family="Arial" font-size="14.00" fill="#ff6c60">query/enumerable/SelectManyEnumerable.ts</text>
</g>
<!-- query/internal.ts&#45;&gt;query/enumerable/SelectManyEnumerable.ts -->
<g id="edge20" class="edge">
<title>query/internal.ts&#45;&gt;query/enumerable/SelectManyEnumerable.ts</title>
<path fill="none" stroke="#757575" d="M455.4857,-252.1704C484.6162,-269.1832 533.9529,-299.2291 581,-314.5683 605.5563,-322.5746 633.3,-327.3894 658.4067,-330.7519"/>
<polygon fill="#757575" stroke="#757575" points="658.2543,-334.261 668.6187,-332.0636 659.1461,-327.3181 658.2543,-334.261"/>
</g>
<!-- query/enumerable/SkipEnumerable.ts -->
<g id="node11" class="node">
<title>query/enumerable/SkipEnumerable.ts</title>
<path fill="none" stroke="#ff6c60" d="M857.3333,-314.0683C857.3333,-314.0683 612.6667,-314.0683 612.6667,-314.0683 608.8333,-314.0683 605,-310.2349 605,-306.4016 605,-306.4016 605,-298.7349 605,-298.7349 605,-294.9016 608.8333,-291.0683 612.6667,-291.0683 612.6667,-291.0683 857.3333,-291.0683 857.3333,-291.0683 861.1667,-291.0683 865,-294.9016 865,-298.7349 865,-298.7349 865,-306.4016 865,-306.4016 865,-310.2349 861.1667,-314.0683 857.3333,-314.0683"/>
<text text-anchor="middle" x="735" y="-298.8683" font-family="Arial" font-size="14.00" fill="#ff6c60">query/enumerable/SkipEnumerable.ts</text>
</g>
<!-- query/internal.ts&#45;&gt;query/enumerable/SkipEnumerable.ts -->
<g id="edge21" class="edge">
<title>query/internal.ts&#45;&gt;query/enumerable/SkipEnumerable.ts</title>
<path fill="none" stroke="#757575" d="M489.1156,-250.9987C516.8323,-258.3098 550.3699,-267.3659 581,-273.5683 614.0924,-280.2692 651.6616,-285.2003 681.4082,-289.5431"/>
<polygon fill="#757575" stroke="#757575" points="681.1774,-293.0472 691.5835,-291.0566 682.2073,-286.1234 681.1774,-293.0472"/>
</g>
<!-- query/enumerable/SkipWhileEnumerable.ts -->
<g id="node12" class="node">
<title>query/enumerable/SkipWhileEnumerable.ts</title>
<path fill="none" stroke="#ff6c60" d="M875.3333,-273.0683C875.3333,-273.0683 594.6667,-273.0683 594.6667,-273.0683 590.8333,-273.0683 587,-269.2349 587,-265.4016 587,-265.4016 587,-257.7349 587,-257.7349 587,-253.9016 590.8333,-250.0683 594.6667,-250.0683 594.6667,-250.0683 875.3333,-250.0683 875.3333,-250.0683 879.1667,-250.0683 883,-253.9016 883,-257.7349 883,-257.7349 883,-265.4016 883,-265.4016 883,-269.2349 879.1667,-273.0683 875.3333,-273.0683"/>
<text text-anchor="middle" x="735" y="-257.8683" font-family="Arial" font-size="14.00" fill="#ff6c60">query/enumerable/SkipWhileEnumerable.ts</text>
</g>
<!-- query/internal.ts&#45;&gt;query/enumerable/SkipWhileEnumerable.ts -->
<g id="edge22" class="edge">
<title>query/internal.ts&#45;&gt;query/enumerable/SkipWhileEnumerable.ts</title>
<path fill="none" stroke="#757575" d="M489.1287,-239.1862C533.3971,-240.8364 594.5392,-244.7929 644.776,-249.1463"/>
<polygon fill="#757575" stroke="#757575" points="644.7249,-252.6554 654.9946,-250.0511 645.3423,-245.6827 644.7249,-252.6554"/>
</g>
<!-- query/enumerable/TakeEnumerable.ts -->
<g id="node13" class="node">
<title>query/enumerable/TakeEnumerable.ts</title>
<path fill="none" stroke="#ff6c60" d="M858.8333,-232.0683C858.8333,-232.0683 611.1667,-232.0683 611.1667,-232.0683 607.3333,-232.0683 603.5,-228.2349 603.5,-224.4016 603.5,-224.4016 603.5,-216.7349 603.5,-216.7349 603.5,-212.9016 607.3333,-209.0683 611.1667,-209.0683 611.1667,-209.0683 858.8333,-209.0683 858.8333,-209.0683 862.6667,-209.0683 866.5,-212.9016 866.5,-216.7349 866.5,-216.7349 866.5,-224.4016 866.5,-224.4016 866.5,-228.2349 862.6667,-232.0683 858.8333,-232.0683"/>
<text text-anchor="middle" x="735" y="-216.8683" font-family="Arial" font-size="14.00" fill="#ff6c60">query/enumerable/TakeEnumerable.ts</text>
</g>
<!-- query/internal.ts&#45;&gt;query/enumerable/TakeEnumerable.ts -->
<g id="edge23" class="edge">
<title>query/internal.ts&#45;&gt;query/enumerable/TakeEnumerable.ts</title>
<path fill="none" stroke="#757575" d="M489.1287,-231.1836C518.9685,-228.2913 556.475,-225.418 593.1405,-223.1206"/>
<polygon fill="#757575" stroke="#757575" points="593.6856,-226.5938 603.4527,-222.4883 593.2572,-219.6069 593.6856,-226.5938"/>
</g>
<!-- query/enumerable/TakeWhileEnumerable.ts -->
<g id="node14" class="node">
<title>query/enumerable/TakeWhileEnumerable.ts</title>
<path fill="none" stroke="#ff6c60" d="M876.8333,-191.0683C876.8333,-191.0683 593.1667,-191.0683 593.1667,-191.0683 589.3333,-191.0683 585.5,-187.2349 585.5,-183.4016 585.5,-183.4016 585.5,-175.7349 585.5,-175.7349 585.5,-171.9016 589.3333,-168.0683 593.1667,-168.0683 593.1667,-168.0683 876.8333,-168.0683 876.8333,-168.0683 880.6667,-168.0683 884.5,-171.9016 884.5,-175.7349 884.5,-175.7349 884.5,-183.4016 884.5,-183.4016 884.5,-187.2349 880.6667,-191.0683 876.8333,-191.0683"/>
<text text-anchor="middle" x="735" y="-175.8683" font-family="Arial" font-size="14.00" fill="#ff6c60">query/enumerable/TakeWhileEnumerable.ts</text>
</g>
<!-- query/internal.ts&#45;&gt;query/enumerable/TakeWhileEnumerable.ts -->
<g id="edge24" class="edge">
<title>query/internal.ts&#45;&gt;query/enumerable/TakeWhileEnumerable.ts</title>
<path fill="none" stroke="#757575" d="M469.629,-229.0556C492.2374,-225.1198 520.7241,-220.1359 545,-211.5683 559.2934,-206.5238 562.692,-200.0826 575.7174,-193.9538"/>
<polygon fill="#757575" stroke="#757575" points="577.2358,-197.1174 585.2551,-190.1934 574.6682,-190.6053 577.2358,-197.1174"/>
</g>
<!-- query/enumerable/WhereEnumerable.ts -->
<g id="node15" class="node">
<title>query/enumerable/WhereEnumerable.ts</title>
<path fill="none" stroke="#ff6c60" d="M864.8333,-150.0683C864.8333,-150.0683 605.1667,-150.0683 605.1667,-150.0683 601.3333,-150.0683 597.5,-146.2349 597.5,-142.4016 597.5,-142.4016 597.5,-134.7349 597.5,-134.7349 597.5,-130.9016 601.3333,-127.0683 605.1667,-127.0683 605.1667,-127.0683 864.8333,-127.0683 864.8333,-127.0683 868.6667,-127.0683 872.5,-130.9016 872.5,-134.7349 872.5,-134.7349 872.5,-142.4016 872.5,-142.4016 872.5,-146.2349 868.6667,-150.0683 864.8333,-150.0683"/>
<text text-anchor="middle" x="735" y="-134.8683" font-family="Arial" font-size="14.00" fill="#ff6c60">query/enumerable/WhereEnumerable.ts</text>
</g>
<!-- query/internal.ts&#45;&gt;query/enumerable/WhereEnumerable.ts -->
<g id="edge25" class="edge">
<title>query/internal.ts&#45;&gt;query/enumerable/WhereEnumerable.ts</title>
<path fill="none" stroke="#757575" d="M489.0238,-231.4807C508.243,-228.3771 528.7588,-222.7883 545,-211.5683 570.9007,-193.6751 554.782,-167.9933 581,-150.5683 608.56,-132.2514 645.056,-126.6646 675.6018,-126.8042"/>
<polygon fill="#757575" stroke="#757575" points="675.6255,-130.3058 685.7111,-127.061 675.8033,-123.3081 675.6255,-130.3058"/>
</g>
<!-- query/enumerable/ZipEnumerable.ts -->
<g id="node16" class="node">
<title>query/enumerable/ZipEnumerable.ts</title>
<path fill="none" stroke="#ff6c60" d="M853.3333,-109.0683C853.3333,-109.0683 616.6667,-109.0683 616.6667,-109.0683 612.8333,-109.0683 609,-105.2349 609,-101.4016 609,-101.4016 609,-93.7349 609,-93.7349 609,-89.9016 612.8333,-86.0683 616.6667,-86.0683 616.6667,-86.0683 853.3333,-86.0683 853.3333,-86.0683 857.1667,-86.0683 861,-89.9016 861,-93.7349 861,-93.7349 861,-101.4016 861,-101.4016 861,-105.2349 857.1667,-109.0683 853.3333,-109.0683"/>
<text text-anchor="middle" x="735" y="-93.8683" font-family="Arial" font-size="14.00" fill="#ff6c60">query/enumerable/ZipEnumerable.ts</text>
</g>
<!-- query/internal.ts&#45;&gt;query/enumerable/ZipEnumerable.ts -->
<g id="edge26" class="edge">
<title>query/internal.ts&#45;&gt;query/enumerable/ZipEnumerable.ts</title>
<path fill="none" stroke="#757575" d="M489.175,-233.419C508.85,-230.5069 529.61,-224.5701 545,-211.5683 581.7231,-180.5437 543.7255,-139.9281 581,-109.5683 611.6211,-84.6276 657.5654,-81.3408 691.3031,-84.7822"/>
<polygon fill="#757575" stroke="#757575" points="690.9916,-88.2705 701.351,-86.0496 691.8677,-81.3255 690.9916,-88.2705"/>
</g>
<!-- query/queryable/IQueryProvider.ts -->
<g id="node17" class="node">
<title>query/queryable/IQueryProvider.ts</title>
<path fill="none" stroke="#ff6c60" d="M845.8333,-68.0683C845.8333,-68.0683 624.1667,-68.0683 624.1667,-68.0683 620.3333,-68.0683 616.5,-64.2349 616.5,-60.4016 616.5,-60.4016 616.5,-52.7349 616.5,-52.7349 616.5,-48.9016 620.3333,-45.0683 624.1667,-45.0683 624.1667,-45.0683 845.8333,-45.0683 845.8333,-45.0683 849.6667,-45.0683 853.5,-48.9016 853.5,-52.7349 853.5,-52.7349 853.5,-60.4016 853.5,-60.4016 853.5,-64.2349 849.6667,-68.0683 845.8333,-68.0683"/>
<text text-anchor="middle" x="735" y="-52.8683" font-family="Arial" font-size="14.00" fill="#ff6c60">query/queryable/IQueryProvider.ts</text>
</g>
<!-- query/internal.ts&#45;&gt;query/queryable/IQueryProvider.ts -->
<g id="edge27" class="edge">
<title>query/internal.ts&#45;&gt;query/queryable/IQueryProvider.ts</title>
<path fill="none" stroke="#757575" d="M489.2754,-234.2928C509.1918,-231.4865 530.0795,-225.4074 545,-211.5683 593.0513,-166.9994 532.1558,-112.2667 581,-68.5683 611.4354,-41.3393 659.7081,-38.9656 694.0904,-43.4351"/>
<polygon fill="#757575" stroke="#757575" points="693.8603,-46.9414 704.2798,-45.022 694.9375,-40.0247 693.8603,-46.9414"/>
</g>
<!-- query/queryable/Queryable.ts -->
<g id="node18" class="node">
<title>query/queryable/Queryable.ts</title>
<path fill="none" stroke="#ff6c60" d="M831.3333,-27.0683C831.3333,-27.0683 638.6667,-27.0683 638.6667,-27.0683 634.8333,-27.0683 631,-23.2349 631,-19.4016 631,-19.4016 631,-11.7349 631,-11.7349 631,-7.9016 634.8333,-4.0683 638.6667,-4.0683 638.6667,-4.0683 831.3333,-4.0683 831.3333,-4.0683 835.1667,-4.0683 839,-7.9016 839,-11.7349 839,-11.7349 839,-19.4016 839,-19.4016 839,-23.2349 835.1667,-27.0683 831.3333,-27.0683"/>
<text text-anchor="middle" x="735" y="-11.8683" font-family="Arial" font-size="14.00" fill="#ff6c60">query/queryable/Queryable.ts</text>
</g>
<!-- query/internal.ts&#45;&gt;query/queryable/Queryable.ts -->
<g id="edge28" class="edge">
<title>query/internal.ts&#45;&gt;query/queryable/Queryable.ts</title>
<path fill="none" stroke="#757575" d="M489.0945,-234.8131C509.2319,-232.0885 530.3089,-225.9432 545,-211.5683 604.5593,-153.2906 520.4033,-84.7666 581,-27.5683 611.231,.9673 660.8499,2.7627 695.5724,-2.2937"/>
<polygon fill="#757575" stroke="#757575" points="695.3832,-5.8125 705.8322,-4.0608 696.5714,1.0859 695.3832,-5.8125"/>
</g>
<!-- query/enumerable/Enumerable.ts&#45;&gt;query/internal.ts -->
<g id="edge6" class="edge">
<title>query/enumerable/Enumerable.ts&#45;&gt;query/internal.ts</title>
<path fill="none" stroke="#757575" d="M618.8843,-470.7959C605.5611,-467.3532 592.611,-462.4169 581,-455.5683 503.2966,-409.7358 453.4934,-306.8661 436.2574,-261.8871"/>
<polygon fill="#757575" stroke="#757575" points="439.4557,-260.4412 432.7424,-252.2448 432.8791,-262.8387 439.4557,-260.4412"/>
</g>
<!-- query/enumerable/IEnumerable.ts&#45;&gt;query/internal.ts -->
<g id="edge7" class="edge">
<title>query/enumerable/IEnumerable.ts&#45;&gt;query/internal.ts</title>
<path fill="none" stroke="#757575" d="M616.7551,-427.8539C604.2946,-424.6777 592.1282,-420.3417 581,-414.5683 512.5533,-379.057 459.2497,-299.5707 438.693,-261.3515"/>
<polygon fill="#757575" stroke="#757575" points="441.6553,-259.4575 433.9792,-252.1549 435.4259,-262.6505 441.6553,-259.4575"/>
</g>
<!-- query/enumerable/SelectEnumerable.ts&#45;&gt;query/internal.ts -->
<g id="edge8" class="edge">
<title>query/enumerable/SelectEnumerable.ts&#45;&gt;query/internal.ts</title>
<path fill="none" stroke="#757575" d="M598.6541,-380.1248C592.6063,-378.2035 586.6931,-376.026 581,-373.5683 521.3564,-347.8204 466.3234,-291.3985 442.2635,-260.7128"/>
<polygon fill="#757575" stroke="#757575" points="444.8619,-258.3433 436.0693,-252.4323 439.2567,-262.5363 444.8619,-258.3433"/>
</g>
<!-- query/enumerable/SelectManyEnumerable.ts&#45;&gt;query/internal.ts -->
<g id="edge9" class="edge">
<title>query/enumerable/SelectManyEnumerable.ts&#45;&gt;query/internal.ts</title>
<path fill="none" stroke="#757575" d="M580.6625,-332.458C528.7797,-315.4687 474.1792,-280.6689 447.0098,-258.7766"/>
<polygon fill="#757575" stroke="#757575" points="449.0856,-255.9482 439.1907,-252.1612 444.5643,-261.2922 449.0856,-255.9482"/>
</g>
<!-- query/enumerable/SkipEnumerable.ts&#45;&gt;query/internal.ts -->
<g id="edge10" class="edge">
<title>query/enumerable/SkipEnumerable.ts&#45;&gt;query/internal.ts</title>
<path fill="none" stroke="#757575" d="M604.97,-295.997C596.8388,-294.627 588.7952,-293.1467 581,-291.5683 537.0173,-282.6621 487.0397,-267.8718 456.9093,-256.0448"/>
<polygon fill="#757575" stroke="#757575" points="458.0686,-252.737 447.4894,-252.1604 455.3999,-259.2084 458.0686,-252.737"/>
</g>
<!-- query/enumerable/SkipWhileEnumerable.ts&#45;&gt;query/internal.ts -->
<g id="edge11" class="edge">
<title>query/enumerable/SkipWhileEnumerable.ts&#45;&gt;query/internal.ts</title>
<path fill="none" stroke="#757575" d="M586.8329,-258.1306C556.2613,-256.0652 525.4448,-253.6221 499.2876,-251.1385"/>
<polygon fill="#757575" stroke="#757575" points="499.4212,-247.635 489.1287,-250.1481 498.7419,-254.602 499.4212,-247.635"/>
</g>
<!-- query/enumerable/TakeEnumerable.ts&#45;&gt;query/internal.ts -->
<g id="edge12" class="edge">
<title>query/enumerable/TakeEnumerable.ts&#45;&gt;query/internal.ts</title>
<path fill="none" stroke="#757575" d="M652.1204,-232.0726C604.2285,-236.1963 544.6564,-239.9936 499.1911,-241.7764"/>
<polygon fill="#757575" stroke="#757575" points="498.9936,-238.2812 489.1287,-242.1456 499.2503,-245.2765 498.9936,-238.2812"/>
</g>
<!-- query/enumerable/TakeWhileEnumerable.ts&#45;&gt;query/internal.ts -->
<g id="edge13" class="edge">
<title>query/enumerable/TakeWhileEnumerable.ts&#45;&gt;query/internal.ts</title>
<path fill="none" stroke="#757575" d="M671.9836,-191.0697C643.6221,-194.6725 610.0589,-199.8961 581,-209.5683 563.6334,-215.3487 562.26,-223.4768 545,-229.5683 530.5172,-234.6796 514.5358,-238.5155 499.1979,-241.153"/>
<polygon fill="#757575" stroke="#757575" points="498.5713,-237.7084 489.2338,-242.7146 499.6552,-244.624 498.5713,-237.7084"/>
</g>
<!-- query/enumerable/WhereEnumerable.ts&#45;&gt;query/internal.ts -->
<g id="edge14" class="edge">
<title>query/enumerable/WhereEnumerable.ts&#45;&gt;query/internal.ts</title>
<path fill="none" stroke="#757575" d="M624.9242,-150.0708C609.3266,-153.99 594.1466,-159.8308 581,-168.5683 554.782,-185.9933 570.9007,-211.6751 545,-229.5683 531.5502,-238.8599 515.169,-244.2896 499.0203,-247.0881"/>
<polygon fill="#757575" stroke="#757575" points="498.4353,-243.6359 489.0238,-248.5015 499.4153,-250.567 498.4353,-243.6359"/>
</g>
<!-- query/enumerable/ZipEnumerable.ts&#45;&gt;query/internal.ts -->
<g id="edge15" class="edge">
<title>query/enumerable/ZipEnumerable.ts&#45;&gt;query/internal.ts</title>
<path fill="none" stroke="#757575" d="M615.8746,-109.1134C603.221,-113.2955 591.2517,-119.2183 581,-127.5683 543.7255,-157.9281 581.7231,-198.5437 545,-229.5683 532.2551,-240.3354 515.8276,-246.2574 499.3833,-249.0377"/>
<polygon fill="#757575" stroke="#757575" points="498.6342,-245.6059 489.175,-250.378 499.5455,-252.5463 498.6342,-245.6059"/>
</g>
<!-- query/queryable/IQueryProvider.ts&#45;&gt;query/internal.ts -->
<g id="edge29" class="edge">
<title>query/queryable/IQueryProvider.ts&#45;&gt;query/internal.ts</title>
<path fill="none" stroke="#757575" d="M616.2461,-66.806C603.2972,-71.1643 591.1556,-77.4826 581,-86.5683 532.1558,-130.2667 593.0513,-184.9994 545,-229.5683 532.644,-241.0288 516.1957,-247.1676 499.5956,-249.9236"/>
<polygon fill="#757575" stroke="#757575" points="498.7612,-246.5009 489.2754,-251.2199 499.6336,-253.4463 498.7612,-246.5009"/>
</g>
<!-- query/queryable/Queryable.ts&#45;&gt;query/internal.ts -->
<g id="edge30" class="edge">
<title>query/queryable/Queryable.ts&#45;&gt;query/internal.ts</title>
<path fill="none" stroke="#757575" d="M630.999,-20.9994C612.4741,-25.1577 594.7358,-32.6028 581,-45.5683 520.4033,-102.7666 604.5593,-171.2906 545,-229.5683 528.676,-245.5411 504.4674,-251.353 482.4244,-252.0849"/>
<polygon fill="#757575" stroke="#757575" points="482.1592,-248.5846 472.1543,-252.0706 482.1494,-255.5846 482.1592,-248.5846"/>
</g>
</g>
</svg>
